<mxfile host="app.diagrams.net" agent="Mozilla/5.0 (X11; Linux x86_64; rv:137.0) Gecko/20100101 Firefox/137.0" version="26.1.3">
  <diagram name="Page-1" id="hcrR39CQLYZ4ij5LqjmC">
    <mxGraphModel dx="454" dy="658" grid="1" gridSize="10" guides="1" tooltips="1" connect="1" arrows="1" fold="1" page="1" pageScale="1" pageWidth="827" pageHeight="1169" math="0" shadow="0">
      <root>
        <mxCell id="0" />
        <mxCell id="1" parent="0" />
        <mxCell id="0S4NocOhZDvytHcNB6KS-3" style="edgeStyle=orthogonalEdgeStyle;rounded=0;orthogonalLoop=1;jettySize=auto;html=1;exitX=0.5;exitY=1;exitDx=0;exitDy=0;entryX=0.5;entryY=0;entryDx=0;entryDy=0;" edge="1" parent="1" source="0S4NocOhZDvytHcNB6KS-1" target="0S4NocOhZDvytHcNB6KS-2">
          <mxGeometry relative="1" as="geometry" />
        </mxCell>
        <mxCell id="0S4NocOhZDvytHcNB6KS-1" value="" style="ellipse;whiteSpace=wrap;html=1;aspect=fixed;fillColor=#f8cecc;strokeColor=#b85450;" vertex="1" parent="1">
          <mxGeometry x="40" y="40" width="40" height="40" as="geometry" />
        </mxCell>
        <mxCell id="0S4NocOhZDvytHcNB6KS-5" style="edgeStyle=orthogonalEdgeStyle;rounded=0;orthogonalLoop=1;jettySize=auto;html=1;exitX=0.5;exitY=1;exitDx=0;exitDy=0;entryX=0.5;entryY=0;entryDx=0;entryDy=0;" edge="1" parent="1" source="0S4NocOhZDvytHcNB6KS-2" target="0S4NocOhZDvytHcNB6KS-4">
          <mxGeometry relative="1" as="geometry" />
        </mxCell>
        <mxCell id="0S4NocOhZDvytHcNB6KS-2" value="&lt;i style=&quot;color: rgb(153, 153, 153);&quot;&gt;init&lt;/i&gt;" style="ellipse;whiteSpace=wrap;html=1;aspect=fixed;fillColor=#f5f5f5;fontColor=#333333;strokeColor=#666666;" vertex="1" parent="1">
          <mxGeometry x="40" y="100" width="40" height="40" as="geometry" />
        </mxCell>
        <mxCell id="0S4NocOhZDvytHcNB6KS-17" style="edgeStyle=orthogonalEdgeStyle;rounded=0;orthogonalLoop=1;jettySize=auto;html=1;entryX=0.5;entryY=0;entryDx=0;entryDy=0;" edge="1" parent="1" source="0S4NocOhZDvytHcNB6KS-4" target="0S4NocOhZDvytHcNB6KS-7">
          <mxGeometry relative="1" as="geometry" />
        </mxCell>
        <mxCell id="0S4NocOhZDvytHcNB6KS-19" style="edgeStyle=orthogonalEdgeStyle;rounded=0;orthogonalLoop=1;jettySize=auto;html=1;exitX=1;exitY=0.5;exitDx=0;exitDy=0;entryX=0.5;entryY=0;entryDx=0;entryDy=0;" edge="1" parent="1" source="0S4NocOhZDvytHcNB6KS-4" target="0S4NocOhZDvytHcNB6KS-8">
          <mxGeometry relative="1" as="geometry" />
        </mxCell>
        <mxCell id="0S4NocOhZDvytHcNB6KS-20" style="edgeStyle=orthogonalEdgeStyle;rounded=0;orthogonalLoop=1;jettySize=auto;html=1;exitX=1;exitY=0.5;exitDx=0;exitDy=0;entryX=0.5;entryY=0;entryDx=0;entryDy=0;" edge="1" parent="1" source="0S4NocOhZDvytHcNB6KS-4" target="0S4NocOhZDvytHcNB6KS-9">
          <mxGeometry relative="1" as="geometry" />
        </mxCell>
        <mxCell id="0S4NocOhZDvytHcNB6KS-22" style="edgeStyle=orthogonalEdgeStyle;rounded=0;orthogonalLoop=1;jettySize=auto;html=1;exitX=1;exitY=0.5;exitDx=0;exitDy=0;entryX=0.5;entryY=0;entryDx=0;entryDy=0;" edge="1" parent="1" source="0S4NocOhZDvytHcNB6KS-4" target="0S4NocOhZDvytHcNB6KS-6">
          <mxGeometry relative="1" as="geometry">
            <Array as="points">
              <mxPoint x="100" y="180" />
            </Array>
          </mxGeometry>
        </mxCell>
        <mxCell id="0S4NocOhZDvytHcNB6KS-4" value="do" style="ellipse;whiteSpace=wrap;html=1;aspect=fixed;fillColor=#f5f5f5;fontColor=#333333;strokeColor=#666666;" vertex="1" parent="1">
          <mxGeometry x="40" y="160" width="40" height="40" as="geometry" />
        </mxCell>
        <mxCell id="0S4NocOhZDvytHcNB6KS-21" style="edgeStyle=orthogonalEdgeStyle;rounded=0;orthogonalLoop=1;jettySize=auto;html=1;entryX=1;entryY=0.5;entryDx=0;entryDy=0;" edge="1" parent="1" source="0S4NocOhZDvytHcNB6KS-6" target="0S4NocOhZDvytHcNB6KS-12">
          <mxGeometry relative="1" as="geometry" />
        </mxCell>
        <mxCell id="0S4NocOhZDvytHcNB6KS-6" value="error" style="ellipse;whiteSpace=wrap;html=1;aspect=fixed;fillColor=#f5f5f5;fontColor=#333333;strokeColor=#666666;" vertex="1" parent="1">
          <mxGeometry x="80" y="220" width="40" height="40" as="geometry" />
        </mxCell>
        <mxCell id="0S4NocOhZDvytHcNB6KS-23" style="edgeStyle=orthogonalEdgeStyle;rounded=0;orthogonalLoop=1;jettySize=auto;html=1;exitX=0.5;exitY=1;exitDx=0;exitDy=0;entryX=1;entryY=0.5;entryDx=0;entryDy=0;" edge="1" parent="1" source="0S4NocOhZDvytHcNB6KS-7" target="0S4NocOhZDvytHcNB6KS-12">
          <mxGeometry relative="1" as="geometry" />
        </mxCell>
        <mxCell id="0S4NocOhZDvytHcNB6KS-7" value="less" style="ellipse;whiteSpace=wrap;html=1;aspect=fixed;fillColor=#f5f5f5;fontColor=#333333;strokeColor=#666666;" vertex="1" parent="1">
          <mxGeometry x="140" y="220" width="40" height="40" as="geometry" />
        </mxCell>
        <mxCell id="0S4NocOhZDvytHcNB6KS-24" style="edgeStyle=orthogonalEdgeStyle;rounded=0;orthogonalLoop=1;jettySize=auto;html=1;exitX=0.5;exitY=1;exitDx=0;exitDy=0;entryX=1;entryY=0.5;entryDx=0;entryDy=0;" edge="1" parent="1" source="0S4NocOhZDvytHcNB6KS-8" target="0S4NocOhZDvytHcNB6KS-12">
          <mxGeometry relative="1" as="geometry" />
        </mxCell>
        <mxCell id="0S4NocOhZDvytHcNB6KS-8" value="great" style="ellipse;whiteSpace=wrap;html=1;aspect=fixed;fillColor=#f5f5f5;fontColor=#333333;strokeColor=#666666;" vertex="1" parent="1">
          <mxGeometry x="200" y="220" width="40" height="40" as="geometry" />
        </mxCell>
        <mxCell id="0S4NocOhZDvytHcNB6KS-25" style="edgeStyle=orthogonalEdgeStyle;rounded=0;orthogonalLoop=1;jettySize=auto;html=1;exitX=0.5;exitY=1;exitDx=0;exitDy=0;entryX=1;entryY=0.5;entryDx=0;entryDy=0;" edge="1" parent="1" source="0S4NocOhZDvytHcNB6KS-9" target="0S4NocOhZDvytHcNB6KS-12">
          <mxGeometry relative="1" as="geometry" />
        </mxCell>
        <mxCell id="0S4NocOhZDvytHcNB6KS-9" value="equal" style="ellipse;whiteSpace=wrap;html=1;aspect=fixed;fillColor=#f5f5f5;fontColor=#333333;strokeColor=#666666;" vertex="1" parent="1">
          <mxGeometry x="260" y="220" width="40" height="40" as="geometry" />
        </mxCell>
        <mxCell id="0S4NocOhZDvytHcNB6KS-26" style="edgeStyle=orthogonalEdgeStyle;rounded=0;orthogonalLoop=1;jettySize=auto;html=1;exitX=0.5;exitY=1;exitDx=0;exitDy=0;entryX=0.5;entryY=0;entryDx=0;entryDy=0;" edge="1" parent="1" source="0S4NocOhZDvytHcNB6KS-12" target="0S4NocOhZDvytHcNB6KS-13">
          <mxGeometry relative="1" as="geometry" />
        </mxCell>
        <mxCell id="0S4NocOhZDvytHcNB6KS-29" style="edgeStyle=orthogonalEdgeStyle;rounded=0;orthogonalLoop=1;jettySize=auto;html=1;exitX=0.5;exitY=0;exitDx=0;exitDy=0;entryX=0.5;entryY=1;entryDx=0;entryDy=0;" edge="1" parent="1" source="0S4NocOhZDvytHcNB6KS-12" target="0S4NocOhZDvytHcNB6KS-4">
          <mxGeometry relative="1" as="geometry" />
        </mxCell>
        <mxCell id="0S4NocOhZDvytHcNB6KS-12" value="while" style="ellipse;whiteSpace=wrap;html=1;aspect=fixed;fillColor=#f5f5f5;fontColor=#333333;strokeColor=#666666;" vertex="1" parent="1">
          <mxGeometry x="40" y="280" width="40" height="40" as="geometry" />
        </mxCell>
        <mxCell id="0S4NocOhZDvytHcNB6KS-28" style="edgeStyle=orthogonalEdgeStyle;rounded=0;orthogonalLoop=1;jettySize=auto;html=1;exitX=0.5;exitY=1;exitDx=0;exitDy=0;entryX=0.5;entryY=0;entryDx=0;entryDy=0;" edge="1" parent="1" source="0S4NocOhZDvytHcNB6KS-13" target="0S4NocOhZDvytHcNB6KS-27">
          <mxGeometry relative="1" as="geometry" />
        </mxCell>
        <mxCell id="0S4NocOhZDvytHcNB6KS-13" value="&lt;i&gt;&lt;span style=&quot;color: rgb(153, 153, 153);&quot;&gt;finish&lt;/span&gt;&lt;/i&gt;" style="ellipse;whiteSpace=wrap;html=1;aspect=fixed;fillColor=#f5f5f5;fontColor=#333333;strokeColor=#666666;" vertex="1" parent="1">
          <mxGeometry x="40" y="340" width="40" height="40" as="geometry" />
        </mxCell>
        <mxCell id="0S4NocOhZDvytHcNB6KS-27" value="" style="ellipse;whiteSpace=wrap;html=1;aspect=fixed;fillColor=#dae8fc;strokeColor=#6c8ebf;" vertex="1" parent="1">
          <mxGeometry x="40" y="400" width="40" height="40" as="geometry" />
        </mxCell>
      </root>
    </mxGraphModel>
  </diagram>
</mxfile>
